<svg xmlns="http://www.w3.org/2000/svg" viewBox="0 0 512 512">
  <defs>
    <radialGradient id="bg" cx="50%" cy="35%" r="75%">
      <stop offset="0%" stop-color="#1c2128"/>
      <stop offset="100%" stop-color="#0b0d10"/>
    </radialGradient>
    <linearGradient id="flame" x1="50%" y1="0%" x2="50%" y2="100%">
      <stop offset="0%" stop-color="#ffd166"/>
      <stop offset="55%" stop-color="#ff7a3d"/>
      <stop offset="100%" stop-color="#c0392b"/>
    </linearGradient>
  </defs>
  <rect width="512" height="512" rx="112" fill="url(#bg)"/>
  <path fill="url(#flame)" d="
    M256 80
    C 268 138 320 158 320 220
    C 320 244 308 262 290 270
    C 304 256 308 238 300 220
    C 292 250 264 264 256 300
    C 248 264 220 250 212 220
    C 204 238 208 256 222 270
    C 204 262 192 244 192 220
    C 192 158 244 138 256 80 Z"/>
  <path fill="url(#flame)" opacity="0.9" d="
    M256 220
    C 270 260 314 274 314 332
    C 314 388 268 432 256 432
    C 244 432 198 388 198 332
    C 198 274 242 260 256 220 Z"/>
  <text x="256" y="478" text-anchor="middle"
        font-family="-apple-system, BlinkMacSystemFont, 'Segoe UI', sans-serif"
        font-size="42" font-weight="700" letter-spacing="6" fill="#e8edf3">OMAD</text>
</svg>
